<svg xmlns="http://www.w3.org/2000/svg" width="32" viewBox="0 0 810 810" height="32" version="1.0"><defs><clipPath id="a"><path d="M 97 280 L 693 280 L 693 534 L 97 534 Z M 97 280"/></clipPath><clipPath id="b"><path d="M 284.324219 89.082031 L 728.742188 533.5 L 536.761719 725.476562 L 92.34375 281.0625 Z M 284.324219 89.082031"/></clipPath><clipPath id="c"><path d="M 284.324219 89.082031 L 728.742188 533.5 L 536.761719 725.476562 L 92.34375 281.0625 Z M 284.324219 89.082031"/></clipPath><clipPath id="d"><path d="M 284.324219 89.082031 L 728.742188 533.5 L 536.761719 725.476562 L 92.34375 281.0625 Z M 284.324219 89.082031"/></clipPath><clipPath id="e"><path d="M 397 390 L 693 390 L 693 534 L 397 534 Z M 397 390"/></clipPath><clipPath id="f"><path d="M 284.324219 89.082031 L 728.742188 533.5 L 536.761719 725.476562 L 92.34375 281.0625 Z M 284.324219 89.082031"/></clipPath><clipPath id="g"><path d="M 284.324219 89.082031 L 728.742188 533.5 L 536.761719 725.476562 L 92.34375 281.0625 Z M 284.324219 89.082031"/></clipPath><clipPath id="h"><path d="M 284.324219 89.082031 L 728.742188 533.5 L 536.761719 725.476562 L 92.34375 281.0625 Z M 284.324219 89.082031"/></clipPath><clipPath id="i"><path d="M 98 283 L 229 283 L 229 344 L 98 344 Z M 98 283"/></clipPath><clipPath id="j"><path d="M 284.324219 89.082031 L 728.742188 533.5 L 536.761719 725.476562 L 92.34375 281.0625 Z M 284.324219 89.082031"/></clipPath><clipPath id="k"><path d="M 284.324219 89.082031 L 728.742188 533.5 L 536.761719 725.476562 L 92.34375 281.0625 Z M 284.324219 89.082031"/></clipPath><clipPath id="l"><path d="M 284.324219 89.082031 L 728.742188 533.5 L 536.761719 725.476562 L 92.34375 281.0625 Z M 284.324219 89.082031"/></clipPath><clipPath id="m"><path d="M 329 380 L 655 380 L 655 525 L 329 525 Z M 329 380"/></clipPath><clipPath id="n"><path d="M 284.324219 89.082031 L 728.742188 533.5 L 536.761719 725.476562 L 92.34375 281.0625 Z M 284.324219 89.082031"/></clipPath><clipPath id="o"><path d="M 284.324219 89.082031 L 728.742188 533.5 L 536.761719 725.476562 L 92.34375 281.0625 Z M 284.324219 89.082031"/></clipPath><clipPath id="p"><path d="M 284.324219 89.082031 L 728.742188 533.5 L 536.761719 725.476562 L 92.34375 281.0625 Z M 284.324219 89.082031"/></clipPath><clipPath id="q"><path d="M 397 409 L 690 409 L 690 534 L 397 534 Z M 397 409"/></clipPath><clipPath id="r"><path d="M 284.324219 89.082031 L 728.742188 533.5 L 536.761719 725.476562 L 92.34375 281.0625 Z M 284.324219 89.082031"/></clipPath><clipPath id="s"><path d="M 284.324219 89.082031 L 728.742188 533.5 L 536.761719 725.476562 L 92.34375 281.0625 Z M 284.324219 89.082031"/></clipPath><clipPath id="t"><path d="M 284.324219 89.082031 L 728.742188 533.5 L 536.761719 725.476562 L 92.34375 281.0625 Z M 284.324219 89.082031"/></clipPath><clipPath id="u"><path d="M 117 264 L 667 264 L 667 612 L 117 612 Z M 117 264"/></clipPath><clipPath id="v"><path d="M 284.324219 89.082031 L 728.742188 533.5 L 536.761719 725.476562 L 92.34375 281.0625 Z M 284.324219 89.082031"/></clipPath><clipPath id="w"><path d="M 284.324219 89.082031 L 728.742188 533.5 L 536.761719 725.476562 L 92.34375 281.0625 Z M 284.324219 89.082031"/></clipPath><clipPath id="x"><path d="M 284.324219 89.082031 L 728.742188 533.5 L 536.761719 725.476562 L 92.34375 281.0625 Z M 284.324219 89.082031"/></clipPath><clipPath id="y"><path d="M 391 425 L 667 425 L 667 612 L 391 612 Z M 391 425"/></clipPath><clipPath id="z"><path d="M 284.324219 89.082031 L 728.742188 533.5 L 536.761719 725.476562 L 92.34375 281.0625 Z M 284.324219 89.082031"/></clipPath><clipPath id="A"><path d="M 284.324219 89.082031 L 728.742188 533.5 L 536.761719 725.476562 L 92.34375 281.0625 Z M 284.324219 89.082031"/></clipPath><clipPath id="B"><path d="M 284.324219 89.082031 L 728.742188 533.5 L 536.761719 725.476562 L 92.34375 281.0625 Z M 284.324219 89.082031"/></clipPath><clipPath id="C"><path d="M 119 269 L 164 269 L 164 301 L 119 301 Z M 119 269"/></clipPath><clipPath id="D"><path d="M 284.324219 89.082031 L 728.742188 533.5 L 536.761719 725.476562 L 92.34375 281.0625 Z M 284.324219 89.082031"/></clipPath><clipPath id="E"><path d="M 284.324219 89.082031 L 728.742188 533.5 L 536.761719 725.476562 L 92.34375 281.0625 Z M 284.324219 89.082031"/></clipPath><clipPath id="F"><path d="M 284.324219 89.082031 L 728.742188 533.5 L 536.761719 725.476562 L 92.34375 281.0625 Z M 284.324219 89.082031"/></clipPath><clipPath id="G"><path d="M 117 266 L 393 266 L 393 451 L 117 451 Z M 117 266"/></clipPath><clipPath id="H"><path d="M 284.324219 89.082031 L 728.742188 533.5 L 536.761719 725.476562 L 92.34375 281.0625 Z M 284.324219 89.082031"/></clipPath><clipPath id="I"><path d="M 284.324219 89.082031 L 728.742188 533.5 L 536.761719 725.476562 L 92.34375 281.0625 Z M 284.324219 89.082031"/></clipPath><clipPath id="J"><path d="M 284.324219 89.082031 L 728.742188 533.5 L 536.761719 725.476562 L 92.34375 281.0625 Z M 284.324219 89.082031"/></clipPath><clipPath id="K"><path d="M 442 481 L 645 481 L 645 611 L 442 611 Z M 442 481"/></clipPath><clipPath id="L"><path d="M 284.324219 89.082031 L 728.742188 533.5 L 536.761719 725.476562 L 92.34375 281.0625 Z M 284.324219 89.082031"/></clipPath><clipPath id="M"><path d="M 284.324219 89.082031 L 728.742188 533.5 L 536.761719 725.476562 L 92.34375 281.0625 Z M 284.324219 89.082031"/></clipPath><clipPath id="N"><path d="M 284.324219 89.082031 L 728.742188 533.5 L 536.761719 725.476562 L 92.34375 281.0625 Z M 284.324219 89.082031"/></clipPath><clipPath id="O"><path d="M 391 441 L 661 441 L 661 612 L 391 612 Z M 391 441"/></clipPath><clipPath id="P"><path d="M 284.324219 89.082031 L 728.742188 533.5 L 536.761719 725.476562 L 92.34375 281.0625 Z M 284.324219 89.082031"/></clipPath><clipPath id="Q"><path d="M 284.324219 89.082031 L 728.742188 533.5 L 536.761719 725.476562 L 92.34375 281.0625 Z M 284.324219 89.082031"/></clipPath><clipPath id="R"><path d="M 284.324219 89.082031 L 728.742188 533.5 L 536.761719 725.476562 L 92.34375 281.0625 Z M 284.324219 89.082031"/></clipPath></defs><g clip-path="url(#a)"><g clip-path="url(#b)"><g clip-path="url(#c)"><g clip-path="url(#d)"><path fill="#E2C378" d="M 689.472656 517.574219 C 685.515625 527.472656 679.472656 534.359375 675.96875 532.960938 C 672.847656 531.726562 204.488281 337.460938 105.789062 288.347656 C 93.796875 282.382812 95.714844 278.1875 108.910156 282.257812 C 215.507812 315.058594 687.203125 495.878906 690.320312 497.132812 C 693.824219 498.523438 693.449219 507.691406 689.472656 517.574219"/></g></g></g></g><g clip-path="url(#e)"><g clip-path="url(#f)"><g clip-path="url(#g)"><g clip-path="url(#h)"><path fill="#C13331" d="M 689.472656 517.574219 C 693.449219 507.691406 693.824219 498.523438 690.320312 497.132812 C 688.632812 496.449219 553.335938 444.558594 409.820312 390.800781 C 399.292969 393.945312 394.394531 409.175781 400.359375 417.453125 C 540.132812 476.664062 674.300781 532.308594 675.96875 532.960938 C 679.472656 534.359375 685.515625 527.472656 689.472656 517.574219"/></g></g></g></g><g clip-path="url(#i)"><g clip-path="url(#j)"><g clip-path="url(#k)"><g clip-path="url(#l)"><path fill="#C2AEA9" d="M 98.976562 283.941406 C 98.816406 283.78125 98.671875 283.628906 98.542969 283.472656 C 98.667969 283.621094 98.8125 283.777344 98.96875 283.933594 C 100.214844 285.175781 102.464844 286.695312 105.789062 288.347656 C 129.347656 300.074219 173.957031 320.058594 228.285156 343.722656 C 173.957031 320.058594 129.347656 300.074219 105.789062 288.347656 C 102.464844 286.695312 100.21875 285.179688 98.976562 283.941406"/><path fill="#AC8651" d="M 98.96875 283.933594 C 98.8125 283.777344 98.667969 283.621094 98.542969 283.472656 C 98.5 283.421875 98.457031 283.367188 98.417969 283.320312 C 97.796875 282.527344 141.003906 301.035156 204.375 327.941406 C 212.03125 333.019531 220.027344 338.296875 228.285156 343.722656 C 173.957031 320.058594 129.347656 300.074219 105.789062 288.347656 C 102.464844 286.695312 100.214844 285.175781 98.96875 283.933594"/></g></g></g></g><g clip-path="url(#m)"><g clip-path="url(#n)"><g clip-path="url(#o)"><g clip-path="url(#p)"><path fill="#AC8651" d="M 329.207031 380.644531 C 351.710938 390.0625 374.761719 399.667969 397.785156 409.195312 C 397.855469 412.214844 398.671875 415.109375 400.359375 417.453125 C 507.53125 462.855469 611.414062 506.15625 654.789062 524.183594 C 607.539062 504.546875 488.488281 454.921875 371.585938 405.253906 C 357.355469 396.964844 343.183594 388.734375 329.207031 380.644531"/></g></g></g></g><g clip-path="url(#q)"><g clip-path="url(#r)"><g clip-path="url(#s)"><g clip-path="url(#t)"><path fill="#942423" d="M 400.359375 417.453125 C 398.671875 415.109375 397.855469 412.214844 397.785156 409.195312 C 531.289062 464.410156 664.335938 517.027344 689.472656 517.574219 C 687.246094 523.140625 684.359375 527.757812 681.640625 530.480469 C 679.515625 532.601562 677.5 533.578125 675.96875 532.960938 C 675.582031 532.808594 667.980469 529.664062 654.789062 524.183594 C 611.414062 506.15625 507.53125 462.855469 400.359375 417.453125"/></g></g></g></g><g clip-path="url(#u)"><g clip-path="url(#v)"><g clip-path="url(#w)"><g clip-path="url(#x)"><path fill="#F3D28B" d="M 660.496094 597.808594 C 654.917969 606.890625 647.78125 612.660156 644.558594 610.6875 C 641.695312 608.9375 213.054688 338.238281 124.109375 273.128906 C 113.292969 265.214844 115.902344 261.410156 128.207031 267.644531 C 227.703125 318.019531 661.898438 576.019531 664.761719 577.785156 C 667.972656 579.75 666.0625 588.722656 660.496094 597.808594"/></g></g></g></g><g clip-path="url(#y)"><g clip-path="url(#z)"><g clip-path="url(#A)"><g clip-path="url(#B)"><path fill="#C13331" d="M 660.496094 597.808594 C 666.0625 588.722656 667.972656 579.75 664.761719 577.785156 C 663.21875 576.832031 538.671875 502.792969 406.347656 425.527344 C 395.453125 426.855469 388.050781 441.039062 392.53125 450.21875 C 520.253906 532.222656 643.035156 609.75 644.558594 610.6875 C 647.78125 612.660156 654.917969 606.890625 660.496094 597.808594"/></g></g></g></g><g clip-path="url(#C)"><g clip-path="url(#D)"><g clip-path="url(#E)"><g clip-path="url(#F)"><path fill="#C2AEA9" d="M 119.726562 269.46875 C 119.636719 269.378906 119.550781 269.28125 119.460938 269.191406 C 119.546875 269.277344 119.628906 269.371094 119.714844 269.457031 C 120.800781 270.539062 122.257812 271.765625 124.109375 273.128906 C 133.632812 280.09375 147.046875 289.421875 163.417969 300.523438 C 147.046875 289.421875 133.632812 280.09375 124.109375 273.128906 C 122.269531 271.777344 120.8125 270.554688 119.726562 269.46875"/></g></g></g></g><g clip-path="url(#G)"><g clip-path="url(#H)"><g clip-path="url(#I)"><g clip-path="url(#J)"><path fill="#B8905E" d="M 119.714844 269.457031 C 119.628906 269.371094 119.546875 269.277344 119.460938 269.191406 C 118.628906 268.328125 118.039062 267.566406 117.691406 266.914062 C 116.800781 265.265625 254.101562 355.121094 391.390625 441.636719 C 390.949219 444.628906 391.269531 447.621094 392.53125 450.21875 C 335.277344 413.449219 277.03125 375.792969 228.285156 343.722656 C 220.027344 338.296875 212.03125 333.019531 204.375 327.941406 C 189.355469 317.980469 175.566406 308.765625 163.417969 300.523438 C 147.046875 289.421875 133.632812 280.09375 124.109375 273.128906 C 122.257812 271.765625 120.800781 270.539062 119.714844 269.457031"/></g></g></g></g><g clip-path="url(#K)"><g clip-path="url(#L)"><g clip-path="url(#M)"><g clip-path="url(#N)"><path fill="#B8905E" d="M 442.015625 481.929688 C 550.226562 551.148438 643.234375 609.871094 644.558594 610.6875 C 643.226562 609.875 550.226562 551.15625 442.015625 481.929688"/></g></g></g></g><g clip-path="url(#O)"><g clip-path="url(#P)"><g clip-path="url(#Q)"><g clip-path="url(#R)"><path fill="#942423" d="M 392.53125 450.21875 C 391.269531 447.621094 390.949219 444.628906 391.390625 441.636719 C 513.605469 518.648438 635.808594 593.011719 660.496094 597.808594 C 658.402344 601.21875 656.085938 604.15625 653.847656 606.394531 C 650.113281 610.128906 646.570312 611.914062 644.558594 610.6875 C 643.234375 609.871094 550.226562 551.148438 442.015625 481.929688 C 425.773438 471.542969 409.195312 460.917969 392.53125 450.21875"/></g></g></g></g></svg>