<svg xmlns="http://www.w3.org/2000/svg" width="810" viewBox="0 0 810 810" height="810" version="1.0"><defs><clipPath id="a"><path d="M 145.445312 171 L 696.695312 171 L 696.695312 789.527344 L 145.445312 789.527344 Z M 145.445312 171"/></clipPath><clipPath id="b"><path d="M 163 12.527344 L 352 12.527344 L 352 520 L 163 520 Z M 163 12.527344"/></clipPath></defs><g clip-path="url(#a)"><path d="M 696.535156 639.4375 L 625.109375 186.21875 C 623.683594 177.835938 616.648438 171.554688 608.125 171.554688 C 603.394531 171.554688 599.117188 173.496094 595.972656 176.667969 L 145.609375 639.4375 L 394.820312 782.792969 C 402.046875 787.035156 410.734375 789.527344 419.96875 789.527344 C 429.171875 789.527344 437.828125 787.035156 445.28125 782.695312 Z M 696.535156 639.4375"/></g><g clip-path="url(#b)"><path d="M 271.027344 21.789062 C 268.109375 16.285156 262.4375 12.527344 255.859375 12.527344 C 247.269531 12.527344 240.140625 18.96875 238.84375 27.453125 L 163.855469 519.941406 L 351.71875 176.34375 L 271.058594 21.882812 Z M 271.027344 21.789062"/></g><path d="M 494.019531 243.945312 L 436.304688 131.214844 C 433.355469 125.582031 427.648438 121.824219 421.070312 121.824219 C 414.492188 121.824219 408.789062 125.582031 405.871094 131.117188 L 405.839844 131.214844 L 152.414062 594.761719 Z M 494.019531 243.945312"/></svg>