<svg xmlns="http://www.w3.org/2000/svg" width="810" viewBox="0 0 810 810" height="810" version="1.0"><defs><clipPath id="a"><path d="M 188.523438 213 L 647.523438 213 L 647.523438 729 L 188.523438 729 Z M 188.523438 213"/></clipPath></defs><g clip-path="url(#a)"><path fill="#FFF" d="M 647.386719 603.828125 L 587.914062 225.855469 C 586.726562 218.863281 580.871094 213.625 573.777344 213.625 C 569.835938 213.625 566.273438 215.242188 563.65625 217.890625 L 188.65625 603.828125 L 396.164062 723.382812 C 402.183594 726.921875 409.414062 729 417.105469 729 C 424.769531 729 431.972656 726.921875 438.179688 723.304688 Z M 647.386719 603.828125"/></g><path fill="#FFF" d="M 293.085938 88.722656 C 290.65625 84.132812 285.9375 81 280.457031 81 C 273.308594 81 267.371094 86.371094 266.292969 93.445312 L 203.851562 504.171875 L 360.277344 217.621094 L 293.113281 88.804688 Z M 293.085938 88.722656"/><path fill="#FFF" d="M 478.765625 273.996094 L 430.707031 179.980469 C 428.25 175.285156 423.5 172.152344 418.023438 172.152344 C 412.546875 172.152344 407.796875 175.285156 405.367188 179.902344 L 405.339844 179.980469 L 194.324219 566.566406 Z M 478.765625 273.996094"/></svg>