<svg xmlns="http://www.w3.org/2000/svg" width="810" viewBox="0 0 810 810" height="810" version="1.0"><path fill="#FFF" d="M 482.492188 90.40625 C 480.980469 90.628906 479.472656 91.078125 478.019531 91.746094 C 465.726562 97.839844 451.757812 115.957031 449.074219 119.535156 C 448.910156 119.757812 448.742188 119.980469 448.628906 120.203125 C 434.828125 140.890625 427.453125 165.097656 427.171875 190.3125 C 427.003906 209.210938 430.691406 227.9375 438.179688 245.996094 C 455.613281 287.871094 491.824219 322.535156 534.902344 338.746094 C 536.355469 339.25 537.753906 339.753906 540.269531 340.648438 C 540.492188 340.757812 542.613281 341.429688 542.949219 341.488281 L 544.515625 342.046875 C 546.75 342.773438 549.039062 343.5 551.277344 343.945312 C 562.621094 346.238281 573.683594 347.523438 584.074219 347.859375 C 585.863281 347.859375 587.652344 347.914062 589.441406 347.914062 C 667.835938 347.914062 698.234375 292.566406 708.347656 274.117188 C 709.351562 272.328125 710.078125 270.875 710.75 269.980469 C 710.75 269.925781 710.75 269.925781 710.804688 269.867188 C 715.21875 263.328125 713.542969 254.4375 707.007812 249.964844 C 700.523438 245.550781 691.640625 247.226562 687.171875 253.769531 C 687.171875 253.769531 687.113281 253.769531 687.113281 253.769531 C 666.214844 284.574219 630.453125 293.910156 580.890625 281.609375 C 577.203125 280.714844 573.179688 279.316406 569.605469 277.976562 C 564.910156 276.296875 560.214844 274.339844 555.859375 272.21875 C 547.195312 267.914062 539.039062 262.769531 531.664062 257.066406 C 488.078125 223.242188 471.035156 152.855469 496.515625 112.210938 C 499.925781 106.785156 499.308594 99.742188 495.007812 94.992188 C 491.765625 91.414062 487.074219 89.792969 482.492188 90.40625 Z M 355.761719 118.917969 C 352.519531 118.863281 349.222656 119.925781 346.539062 122.160156 C 324.917969 139.773438 302.789062 168.621094 301.839844 169.792969 C 301.726562 170.019531 301.617188 170.1875 301.449219 170.410156 C 262.332031 227.378906 259.371094 308.445312 293.960938 376.933594 C 299.378906 387.777344 305.527344 398.121094 312.066406 407.625 L 314.019531 410.421875 C 319.550781 418.527344 325.753906 427.695312 333.6875 434.851562 C 336.425781 437.984375 339.386719 441 342.292969 443.910156 L 343.691406 445.363281 L 344.863281 446.535156 C 347.824219 449.386719 350.84375 452.296875 353.972656 455.089844 C 353.972656 455.089844 354.027344 455.089844 354.027344 455.089844 C 354.253906 455.425781 354.585938 455.648438 354.867188 455.929688 C 358.386719 459.058594 361.964844 462.023438 366.710938 465.769531 L 367.996094 466.71875 C 371.6875 469.683594 375.429688 472.476562 379.285156 475.21875 C 379.675781 475.496094 380.066406 475.777344 380.457031 476.054688 C 381.800781 476.949219 383.140625 477.789062 384.480469 478.738281 L 385.824219 479.632812 L 387.386719 480.640625 C 390.238281 482.539062 393.03125 484.273438 397 486.566406 C 399.570312 488.132812 402.308594 489.695312 404.09375 490.589844 C 404.878906 491.039062 405.714844 491.484375 407.671875 492.546875 L 412.03125 494.839844 C 412.253906 494.953125 413.257812 495.398438 413.480469 495.511719 C 416.332031 496.964844 419.292969 498.363281 422.253906 499.703125 L 426.78125 501.71875 C 429.742188 503.003906 432.761719 504.234375 436.449219 505.628906 L 438.125 506.246094 C 438.234375 506.359375 439.632812 506.859375 439.746094 506.917969 C 442.425781 507.867188 445.164062 508.816406 447.902344 509.710938 L 454.160156 511.78125 C 457.289062 512.84375 460.921875 514.074219 464.890625 514.742188 C 484.390625 517.988281 503.332031 519.664062 521.269531 519.664062 C 523.394531 519.664062 525.515625 519.609375 527.585938 519.609375 C 685.492188 516.140625 726.5625 381.90625 726.953125 380.566406 C 728.910156 373.800781 725.726562 366.589844 719.355469 363.570312 C 712.984375 360.550781 705.386719 362.675781 701.417969 368.488281 C 661.410156 426.96875 585.753906 451.679688 508.699219 431.328125 C 505.121094 430.433594 501.65625 429.429688 497.355469 428.03125 C 496.628906 427.808594 496.011719 427.582031 494.839844 427.136719 C 492.324219 426.355469 489.867188 425.515625 487.074219 424.453125 L 483.105469 422.945312 C 480.816406 422.050781 478.523438 421.15625 475.730469 419.925781 L 473.886719 419.085938 C 470.476562 417.632812 467.179688 416.011719 464.21875 414.558594 L 456.0625 410.308594 C 454.21875 409.414062 452.597656 408.40625 450.082031 406.898438 L 448.683594 406.117188 L 447.289062 405.277344 C 445.21875 404.046875 443.152344 402.761719 441.253906 401.417969 L 439.914062 400.582031 C 439.800781 400.523438 438.683594 399.742188 438.570312 399.628906 C 436.894531 398.566406 435.273438 397.503906 433.710938 396.5 C 430.246094 394.039062 426.835938 391.46875 422.871094 388.335938 L 421.304688 387.050781 C 384.425781 357.585938 357.15625 318.230469 344.363281 276.019531 C 332.460938 237.273438 341.289062 186.566406 367.996094 140.386719 C 371.460938 134.40625 370.175781 126.800781 364.867188 122.328125 C 362.242188 120.09375 359 118.917969 355.761719 118.917969 Z M 198.355469 161.855469 C 194.945312 161.855469 191.480469 163.085938 188.742188 165.546875 C 161.417969 190.089844 140.96875 221.902344 138.734375 225.535156 C 80.285156 310.679688 91.570312 443.015625 131.691406 523.914062 C 132.472656 525.589844 133.3125 527.210938 134.152344 528.832031 L 134.710938 529.726562 C 135.4375 531.347656 136.273438 533.027344 136.554688 533.359375 C 137 534.421875 137.671875 535.597656 137.949219 535.933594 C 138.621094 537.332031 139.292969 538.558594 140.519531 540.683594 L 145.101562 548.566406 C 145.773438 549.628906 146.445312 550.75 146.667969 551.140625 C 147.5625 552.59375 148.511719 554.101562 149.460938 555.613281 L 151.695312 559.191406 C 152.367188 560.253906 153.039062 561.203125 153.484375 561.761719 C 155.71875 565.226562 157.953125 568.695312 160.414062 571.992188 C 160.523438 572.160156 160.636719 572.273438 160.75 572.382812 L 161.640625 573.613281 C 163.652344 576.519531 165.722656 579.316406 167.566406 581.609375 L 175.722656 591.953125 C 175.835938 592.0625 176.730469 593.125 176.785156 593.238281 L 177.957031 594.578125 C 180.417969 597.597656 183.042969 600.617188 185.667969 603.523438 C 186.0625 603.972656 186.453125 604.363281 186.84375 604.8125 C 189.359375 607.550781 191.929688 610.289062 194.609375 613.140625 L 197.179688 615.601562 C 199.304688 617.835938 201.425781 620.015625 203.664062 622.085938 C 203.664062 622.140625 204.722656 623.148438 204.722656 623.148438 L 206.960938 625.21875 C 209.640625 627.789062 212.433594 630.359375 214.558594 632.148438 C 214.671875 632.316406 216.683594 634.050781 216.847656 634.160156 C 219.476562 636.511719 222.101562 638.746094 224.785156 640.925781 L 238.472656 651.773438 C 240.765625 653.449219 243.113281 655.128906 245.792969 657.085938 C 246.6875 657.753906 247.636719 658.425781 248.585938 659.039062 C 248.980469 659.375 249.425781 659.710938 249.707031 659.878906 L 259.988281 666.757812 C 263.730469 669.214844 267.472656 671.507812 272.054688 674.246094 L 274.515625 675.644531 C 277.363281 677.324219 280.269531 679 283.007812 680.453125 C 284.628906 681.347656 286.25 682.128906 287.644531 682.859375 C 289.601562 683.917969 291.726562 685.09375 294.964844 686.660156 C 295.246094 686.828125 297.535156 687.945312 297.816406 688.058594 C 301.058594 689.679688 304.351562 691.1875 308.488281 693.03125 C 308.488281 693.089844 309.828125 693.703125 309.828125 693.703125 C 313.628906 695.324219 317.316406 696.890625 322.179688 698.847656 C 322.960938 699.183594 323.742188 699.460938 323.910156 699.519531 C 327.375 700.859375 331.007812 702.203125 333.96875 703.265625 C 334.246094 703.375 335.757812 703.992188 336.035156 704.101562 C 340.003906 705.445312 343.914062 706.730469 348.945312 708.296875 C 349.78125 708.574219 350.675781 708.855469 350.789062 708.855469 L 353.636719 709.75 C 357.101562 710.8125 360.566406 711.929688 364.308594 712.65625 C 390.90625 717.519531 416.890625 720.035156 441.476562 720.035156 L 441.53125 720.035156 C 646.433594 720.035156 711.699219 555.054688 712.371094 553.375 C 714.886719 546.722656 712.148438 539.230469 705.890625 535.765625 C 699.742188 532.355469 691.917969 533.976562 687.5625 539.621094 C 634.980469 608.890625 535.796875 634.609375 422.253906 608.5 C 419.515625 607.828125 416.722656 607.046875 413.984375 606.207031 L 408.621094 604.585938 C 404.988281 603.46875 401.355469 602.238281 397.835938 601.007812 C 397.78125 601.007812 396.160156 600.394531 396.160156 600.394531 C 393.03125 599.332031 389.902344 598.101562 387.164062 597.039062 L 384.035156 595.808594 C 380.570312 594.410156 377.105469 592.957031 373.753906 591.449219 L 371.796875 590.609375 C 368.78125 589.210938 365.875 587.871094 362.96875 586.417969 C 362.746094 586.304688 360.453125 585.1875 360.230469 585.132812 C 358.21875 584.125 356.207031 583.0625 353.636719 581.664062 L 341.960938 575.402344 C 340.785156 574.621094 339.554688 573.894531 338.382812 573.277344 C 334.863281 571.097656 331.230469 568.917969 327.65625 566.625 C 326.816406 566.121094 326.089844 565.5625 324.691406 564.613281 C 322.234375 563.046875 319.832031 561.425781 316.3125 558.964844 L 314.914062 557.960938 C 312.511719 556.28125 310.164062 554.492188 308.210938 553.039062 C 306.980469 552.144531 305.75 551.140625 303.738281 549.628906 C 301.949219 548.230469 300.164062 546.890625 298.488281 545.546875 L 295.355469 542.976562 C 292.730469 540.851562 290.273438 538.617188 287.703125 536.4375 C 287.367188 536.101562 287.085938 535.875 286.695312 535.597656 C 283.847656 532.96875 280.941406 530.34375 277.476562 527.042969 L 267.363281 516.980469 C 264.902344 514.464844 262.445312 511.890625 259.652344 508.816406 C 257.082031 505.964844 254.621094 503.113281 251.324219 499.203125 L 245.289062 491.820312 C 244.566406 490.757812 243.78125 489.695312 242.832031 488.578125 C 240.765625 485.785156 238.699219 483.042969 236.628906 480.136719 C 180.976562 403.433594 166.449219 243.3125 209.808594 184.667969 C 214.167969 178.796875 213.386719 170.519531 207.910156 165.546875 C 205.226562 163.085938 201.761719 161.855469 198.355469 161.855469 Z M 198.355469 161.855469"/></svg>