<?xml version="1.0" standalone="no"?>
<!DOCTYPE svg PUBLIC "-//W3C//DTD SVG 20010904//EN"
 "http://www.w3.org/TR/2001/REC-SVG-20010904/DTD/svg10.dtd">
<svg version="1.0" xmlns="http://www.w3.org/2000/svg"
 width="1376.000000pt" height="1376.000000pt" viewBox="0 0 1376.000000 1376.000000"
 preserveAspectRatio="xMidYMid meet">

<g transform="translate(0.000000,1376.000000) scale(0.100000,-0.100000)"
fill="#000000" stroke="none">
<path d="M0 6880 l0 -6880 6880 0 6880 0 0 6880 0 6880 -6880 0 -6880 0 0
-6880z m7270 5725 c262 -9 548 -48 845 -114 312 -70 494 -127 820 -257 155
-61 149 -58 370 -170 820 -413 1542 -1069 2016 -1831 100 -160 92 -148 146
-243 187 -335 310 -629 447 -1067 63 -202 138 -588 170 -878 45 -400 35 -923
-25 -1290 -48 -299 -132 -676 -169 -760 -5 -11 -17 -49 -28 -85 -11 -36 -41
-120 -66 -188 -383 -1023 -1065 -1882 -1977 -2490 -217 -145 -531 -318 -719
-397 -36 -15 -83 -35 -105 -45 -197 -90 -531 -200 -803 -265 -584 -141 -1255
-175 -1862 -95 -980 130 -1887 535 -2650 1184 -139 119 -442 422 -565 566
-632 743 -1028 1624 -1174 2615 -49 331 -61 863 -27 1185 57 546 171 1007 362
1464 74 177 201 439 263 544 17 29 31 55 31 58 0 17 240 381 335 508 284 380
651 748 1020 1027 614 463 1333 788 2055 929 182 35 204 39 255 45 28 4 73 10
100 15 134 25 548 49 730 43 39 -2 131 -5 205 -8z"/>
<path d="M6595 12214 c-655 -56 -1309 -256 -1890 -578 -385 -214 -719 -468
-1045 -795 -390 -391 -658 -764 -900 -1256 -327 -664 -482 -1333 -483 -2085 0
-880 221 -1681 670 -2431 261 -437 568 -803 958 -1142 324 -282 645 -495 1030
-682 500 -244 963 -378 1560 -452 203 -25 808 -25 1020 1 573 69 1049 206
1545 445 819 394 1525 1039 1994 1819 128 213 266 490 332 665 19 51 38 101
43 112 57 124 174 534 212 740 42 230 66 403 79 585 12 162 12 522 0 675 -20
261 -59 516 -114 750 -54 226 -122 451 -177 580 -5 11 -22 56 -39 100 -17 44
-42 104 -55 133 -14 29 -25 55 -25 57 0 7 -89 185 -148 296 -271 512 -702
1034 -1157 1404 -38 31 -80 65 -92 76 -81 68 -344 248 -493 336 -409 243 -861
427 -1295 529 -123 29 -393 81 -480 93 -300 41 -745 52 -1050 25z m603 -671
l3 -83 393 0 c325 0 396 -2 405 -14 8 -9 11 -46 9 -103 l-3 -88 -340 -5 c-187
-3 -334 -9 -327 -13 6 -5 61 -26 121 -47 276 -99 581 -230 581 -250 0 -8 -93
-143 -121 -174 -4 -4 -67 21 -141 57 -73 36 -162 77 -198 92 -36 15 -78 33
-95 40 -88 40 -256 105 -270 105 -13 0 -15 -20 -15 -130 l0 -131 -127 3 -128
3 -5 153 -5 154 -45 -34 c-121 -91 -281 -182 -403 -229 -29 -11 -61 -24 -72
-29 -34 -15 -144 -50 -158 -50 -8 0 -29 21 -47 48 -19 26 -51 68 -72 93 -21
26 -38 49 -38 53 0 3 19 10 43 16 108 27 295 94 397 142 88 42 200 108 200
119 0 5 -128 9 -290 9 l-291 0 3 103 3 102 388 3 387 2 0 69 c0 107 -7 102
134 99 l121 -3 3 -82z m415 -830 c34 -31 65 -61 69 -67 13 -19 -230 -168 -395
-241 -37 -17 -67 -33 -67 -37 0 -4 179 -9 398 -10 l397 -3 0 -110 0 -110 -407
-3 -408 -2 0 -118 c0 -202 -33 -261 -168 -301 -91 -27 -330 -35 -342 -11 -51
98 -97 209 -87 213 7 2 75 2 152 0 89 -3 150 -1 168 6 l28 11 -3 97 -3 98
-389 3 c-267 1 -393 6 -403 13 -14 13 -19 184 -5 206 6 10 102 13 403 15 l394
3 5 43 c5 42 7 45 60 66 30 13 75 34 100 47 l45 24 -325 5 -325 5 0 100 0 100
490 5 c270 3 505 6 523 8 27 2 42 -7 95 -55z m-477 -2023 c16 -16 170 -28 188
-14 9 6 38 14 65 18 62 8 106 -11 142 -62 58 -81 99 -123 184 -191 84 -67 140
-183 137 -282 -1 -25 7 -49 25 -75 34 -51 41 -114 49 -437 5 -251 5 -258 -16
-284 -18 -23 -20 -35 -14 -79 5 -46 4 -53 -14 -63 -35 -19 -67 -12 -97 19 -16
17 -37 30 -46 30 -22 0 -50 -40 -73 -103 -19 -52 -19 -110 3 -372 9 -118 10
-120 42 -147 26 -22 33 -36 35 -70 1 -24 4 -54 6 -68 3 -20 -7 -30 -62 -62
-134 -79 -330 -139 -515 -159 -129 -14 -324 -1 -422 27 -44 13 -53 19 -53 39
0 12 -7 26 -15 29 -12 4 -14 14 -9 41 6 34 5 35 -25 35 -29 0 -31 2 -31 39 0
51 17 62 44 29 47 -57 135 -77 236 -52 109 26 179 92 224 210 32 87 53 108 94
99 22 -4 31 -2 36 11 5 13 2 15 -19 10 -24 -6 -25 -4 -25 34 0 24 12 64 30
102 17 34 30 71 30 83 0 31 -28 52 -79 60 -41 7 -43 6 -36 -14 5 -16 3 -20 -9
-15 -9 4 -16 18 -16 34 0 18 -8 33 -25 44 -34 23 -38 20 -20 -15 19 -36 13
-49 -12 -26 -28 25 -72 32 -79 13 -10 -26 -29 -18 -52 23 -25 45 -28 61 -8 61
10 0 14 17 15 66 0 36 3 70 6 75 3 4 8 38 11 75 5 55 3 71 -13 93 -11 14 -22
34 -26 43 -7 20 -64 58 -88 58 -8 0 -28 14 -44 30 -16 17 -23 30 -17 30 9 0 9
5 0 20 -18 28 -38 25 -99 -16 -50 -33 -58 -36 -106 -30 -50 6 -53 5 -90 -32
-21 -21 -48 -51 -60 -66 -21 -26 -23 -26 -52 -11 -21 11 -37 12 -54 6 -35 -14
-85 -79 -100 -130 -14 -51 -37 -67 -37 -27 0 27 43 121 85 185 13 20 27 59 31
86 5 39 14 57 43 85 20 19 43 47 50 63 8 15 20 27 27 27 19 0 151 131 163 162
10 25 13 27 36 16 14 -6 28 -8 32 -5 8 8 -63 113 -81 120 -23 9 -85 -10 -126
-37 -50 -33 -58 -32 -71 2 -6 15 -18 39 -26 54 -12 24 -12 31 2 57 9 18 15 56
15 96 0 41 6 78 16 97 15 30 17 31 30 14 19 -26 48 -13 39 16 -4 13 -14 30
-21 39 -19 21 -18 73 1 89 12 10 21 10 41 1 30 -13 58 -14 82 -2 9 5 42 17 72
26 30 10 90 35 132 57 72 37 81 39 133 33 46 -6 59 -4 75 10 17 15 26 16 62 7
42 -11 78 -2 78 18 0 13 23 13 36 0z m3004 -340 c20 -20 20 -33 20 -622 0
-362 4 -609 10 -618 8 -13 63 -16 363 -20 280 -4 357 -8 370 -19 14 -11 17
-34 17 -130 0 -78 -4 -121 -12 -129 -9 -9 -143 -12 -539 -12 l-528 0 -15 22
c-14 20 -16 109 -16 765 0 730 0 743 20 763 18 18 33 20 155 20 122 0 137 -2
155 -20z m-6269 -6 c19 -17 58 -114 189 -469 44 -121 99 -267 121 -325 43
-113 208 -555 245 -658 24 -67 23 -86 -4 -97 -9 -4 -78 -6 -152 -6 -116 2
-138 5 -153 20 -10 10 -41 81 -68 157 -27 76 -56 146 -65 154 -20 21 -525 27
-564 8 -24 -13 -35 -36 -104 -231 -39 -107 -46 -111 -199 -108 -67 1 -130 4
-139 7 -27 8 -30 39 -9 91 18 45 268 704 298 786 36 101 217 578 236 620 11
27 30 53 41 57 12 5 86 9 165 9 119 1 148 -2 162 -15z m2919 -753 c25 -7 64
-66 54 -83 -7 -11 -81 1 -124 21 -37 17 -51 48 -28 62 15 10 62 10 98 0z
m-120 -11 c0 -5 -10 -10 -22 -10 -19 0 -20 2 -8 10 19 13 30 13 30 0z m230
-255 c-7 -8 -16 -15 -21 -15 -14 0 -10 17 8 36 20 20 32 1 13 -21z m-5 -223
c-8 -8 -35 20 -35 37 1 12 5 11 21 -8 11 -13 17 -26 14 -29z m203 -221 c3 -8
-1 -12 -9 -9 -7 2 -15 10 -17 17 -3 8 1 12 9 9 7 -2 15 -10 17 -17z m-78 -26
c5 -14 7 -37 4 -52 -3 -16 -6 -50 -7 -78 -2 -45 -4 -50 -24 -47 -14 2 -23 -4
-28 -18 -3 -11 -9 -20 -13 -21 -19 -2 -40 -8 -72 -22 -19 -8 -65 -18 -102 -22
-64 -6 -71 -5 -123 25 -57 33 -85 70 -85 114 0 36 18 42 48 14 44 -40 62 -43
62 -8 0 26 4 30 29 30 16 0 63 7 106 16 42 9 78 14 80 12 2 -2 6 -26 8 -53 3
-28 9 -49 13 -49 12 3 43 83 43 114 1 28 26 70 42 70 5 0 14 -11 19 -25z m-43
-250 c-4 -8 -11 -15 -17 -15 -7 0 -7 6 0 21 13 23 26 19 17 -6z m-221 -1680
c11 -15 14 -73 14 -281 0 -144 3 -269 6 -278 10 -26 41 -18 81 22 21 20 114
118 207 217 289 308 314 332 348 339 17 3 97 6 177 6 155 0 194 -9 175 -42 -5
-9 -126 -136 -269 -283 -143 -147 -263 -276 -268 -287 -12 -34 -29 -9 425
-647 174 -244 202 -291 180 -305 -4 -2 -90 -6 -190 -7 -167 -2 -183 -1 -203
17 -11 10 -63 82 -114 159 -52 77 -147 219 -212 315 -148 217 -143 215 -250
106 -40 -42 -78 -88 -83 -102 -6 -14 -10 -124 -10 -244 0 -185 -2 -221 -16
-234 -21 -22 -295 -24 -313 -2 -8 9 -10 220 -9 772 l3 758 25 14 c18 9 60 12
154 10 112 -3 130 -6 142 -23z"/>
<path d="M7265 8069 c-16 -10 -40 -19 -52 -19 -21 0 -22 -3 -16 -47 3 -27 8
-50 10 -53 4 -4 30 -6 157 -9 37 -1 42 4 26 24 -20 24 13 19 35 -5 20 -22 40
-26 50 -10 9 15 -11 37 -70 74 -27 18 -56 40 -64 49 -17 22 -38 20 -76 -4z"/>
<path d="M7346 7031 c-4 -7 -5 -15 -2 -18 9 -9 19 4 14 18 -4 11 -6 11 -12 0z"/>
<path d="M6830 6370 c0 -5 5 -10 10 -10 6 0 10 5 10 10 0 6 -4 10 -10 10 -5 0
-10 -4 -10 -10z"/>
<path d="M3678 7903 c-8 -10 -25 -45 -36 -78 -11 -33 -39 -112 -62 -175 -23
-63 -48 -139 -57 -167 -25 -83 -23 -84 181 -81 168 3 171 3 174 25 3 23 -102
346 -143 439 -26 58 -34 63 -57 37z"/>
</g>
</svg>
