<svg xmlns="http://www.w3.org/2000/svg" xmlns:xlink="http://www.w3.org/1999/xlink" width="1080" zoomAndPan="magnify" viewBox="0 0 810 809.999993" height="1080" preserveAspectRatio="xMidYMid meet" version="1.0"><defs><clipPath id="493a1c975f"><path d="M 14 274 L 465 274 L 465 556.875 L 14 556.875 Z M 14 274 " clip-rule="nonzero"/></clipPath><clipPath id="1b9df14573"><path d="M 234 253.125 L 259 253.125 L 259 268 L 234 268 Z M 234 253.125 " clip-rule="nonzero"/></clipPath><clipPath id="5d5e21d78e"><path d="M 260 401 L 393 401 L 393 556.875 L 260 556.875 Z M 260 401 " clip-rule="nonzero"/></clipPath><clipPath id="49504bfe74"><path d="M 594 402 L 692 402 L 692 556.875 L 594 556.875 Z M 594 402 " clip-rule="nonzero"/></clipPath><clipPath id="ded22a7c98"><path d="M 535 402 L 578 402 L 578 556.875 L 535 556.875 Z M 535 402 " clip-rule="nonzero"/></clipPath><clipPath id="151f863331"><path d="M 401 402 L 518 402 L 518 556.875 L 401 556.875 Z M 401 402 " clip-rule="nonzero"/></clipPath><clipPath id="8e28abf67f"><path d="M 703 402 L 810 402 L 810 556.875 L 703 556.875 Z M 703 402 " clip-rule="nonzero"/></clipPath></defs><path fill="#ffffff" d="M 191.296875 433.789062 C 188.628906 441.855469 186.804688 449.953125 185.152344 457.785156 L 201.722656 471.722656 C 202.535156 463.21875 203.984375 454.714844 206.011719 446.207031 Z M 191.296875 433.789062 " fill-opacity="1" fill-rule="nonzero"/><path fill="#ffffff" d="M 182.082031 513.234375 C 182.484375 524.8125 183.5 534.195312 184.546875 540.742188 L 209.082031 550.125 C 207.226562 541.621094 205.402344 532 204.1875 521.742188 Z M 182.082031 513.234375 " fill-opacity="1" fill-rule="nonzero"/><g clip-path="url(#493a1c975f)"><path fill="#ffffff" d="M 15.828125 546.175781 C 14.679688 552.890625 14.308594 556.839844 14.308594 556.839844 L 14.34375 556.875 L 175.972656 556.875 C 175.972656 556.875 145.089844 406.550781 247.386719 345.632812 C 269.695312 334.058594 340.707031 290.859375 456.875 382.488281 C 460.550781 379.214844 464.027344 376.582031 464.027344 376.582031 C 464.027344 376.582031 357.613281 263.351562 239.152344 275.972656 C 179.414062 281.644531 106.175781 339.492188 63.214844 415.832031 C 30.542969 473.851562 19.339844 524.878906 15.828125 546.175781 Z M 15.828125 546.175781 " fill-opacity="1" fill-rule="nonzero"/></g><path fill="#ffffff" d="M 95.546875 354.140625 L 81.035156 340.605469 C 75.703125 346.074219 70.605469 351.507812 65.914062 356.972656 L 81.675781 371.351562 C 85.960938 365.445312 90.6875 359.574219 95.578125 354.105469 Z M 95.546875 354.140625 " fill-opacity="1" fill-rule="nonzero"/><path fill="#ffffff" d="M 236.757812 387.789062 L 227.542969 372.9375 C 222.851562 377.527344 218.53125 382.523438 214.851562 387.550781 L 224.671875 403.246094 C 228.148438 397.777344 232.234375 392.75 236.757812 387.789062 Z M 236.757812 387.789062 " fill-opacity="1" fill-rule="nonzero"/><g clip-path="url(#1b9df14573)"><path fill="#ffffff" d="M 258.019531 266.421875 L 253.933594 253.125 C 247.589844 253.125 241.042969 253.5625 234.292969 254.441406 L 238.171875 267.300781 C 244.113281 266.660156 250.054688 266.421875 255.960938 266.421875 Z M 258.019531 266.421875 " fill-opacity="1" fill-rule="nonzero"/></g><path fill="#ffffff" d="M 163.652344 274.285156 C 158.523438 277.121094 153.226562 280.191406 147.691406 283.636719 L 157.105469 298.921875 C 162.4375 295.449219 167.535156 292.171875 172.867188 289.339844 Z M 163.652344 274.285156 " fill-opacity="1" fill-rule="nonzero"/><path fill="#ffffff" d="M 33.75 451.675781 L 10.226562 442.496094 C 6.34375 451.878906 2.058594 462.8125 0 468.6875 L 23.523438 477.832031 C 26.191406 470.40625 30.476562 459.742188 33.75 451.675781 Z M 33.75 451.675781 " fill-opacity="1" fill-rule="nonzero"/><g clip-path="url(#5d5e21d78e)"><path fill="#ffffff" d="M 260.886719 556.875 L 300.171875 556.875 L 300.171875 519.34375 L 334.125 556.875 L 392.207031 556.875 L 346.578125 507.800781 L 346.578125 507.769531 C 346.578125 507.769531 382.386719 504.527344 382.386719 455.1875 C 382.386719 405.84375 339.019531 401.289062 339.019531 401.289062 L 260.886719 401.289062 Z M 300.140625 440.300781 L 331.628906 440.300781 C 331.628906 440.300781 340.4375 443.777344 340.4375 457.988281 C 340.4375 472.164062 331.425781 475.875 331.425781 475.875 L 300.140625 475.875 Z M 300.140625 440.300781 " fill-opacity="1" fill-rule="nonzero"/></g><g clip-path="url(#49504bfe74)"><path fill="#ffffff" d="M 594.136719 402.367188 L 594.136719 556.839844 L 691.335938 556.839844 L 691.335938 516.914062 L 635.480469 516.914062 L 635.480469 402.367188 Z M 594.136719 402.367188 " fill-opacity="1" fill-rule="nonzero"/></g><g clip-path="url(#ded22a7c98)"><path fill="#ffffff" d="M 535.644531 402.367188 L 577.160156 402.367188 L 577.160156 556.839844 L 535.644531 556.839844 Z M 535.644531 402.367188 " fill-opacity="1" fill-rule="nonzero"/></g><path fill="#ffffff" d="M 351.910156 273.609375 C 350.054688 272.53125 344.957031 269.898438 332.066406 265.984375 L 331.222656 280.394531 C 337.972656 282.792969 344.519531 285.421875 351.066406 288.226562 L 351.066406 288.257812 Z M 351.910156 273.609375 " fill-opacity="1" fill-rule="nonzero"/><path fill="#ffffff" d="M 351.910156 337.332031 C 344.957031 335.8125 338.207031 334.933594 331.660156 334.496094 L 331.660156 334.53125 L 330.851562 348.265625 C 337.601562 348.46875 344.351562 349.347656 351.101562 350.863281 Z M 351.910156 337.332031 " fill-opacity="1" fill-rule="nonzero"/><g clip-path="url(#151f863331)"><path fill="#ffffff" d="M 479.351562 402.367188 L 439.457031 402.367188 C 411.042969 402.367188 401.421875 429.875 401.421875 442.96875 L 401.421875 556.875 L 441.316406 556.875 L 441.316406 529.570312 L 478.742188 529.570312 L 478.742188 556.875 L 517.386719 556.875 L 517.386719 442.96875 C 517.421875 409.792969 489.207031 402.367188 479.351562 402.367188 Z M 441.113281 485.492188 L 441.113281 447.761719 C 441.113281 447.761719 441.113281 439.222656 453.601562 439.222656 L 467.300781 439.222656 C 478.339844 439.222656 478.542969 447.761719 478.542969 447.761719 L 478.542969 485.492188 Z M 441.113281 485.492188 " fill-opacity="1" fill-rule="nonzero"/></g><g clip-path="url(#8e28abf67f)"><path fill="#ffffff" d="M 804.703125 442.089844 L 804.703125 402.367188 L 741.285156 402.367188 C 724.917969 402.367188 703.046875 416.746094 703.046875 443.609375 L 703.046875 457.347656 C 703.046875 484.210938 724.714844 497.949219 741.285156 497.949219 C 751.949219 497.980469 756.945312 498.015625 759.070312 498.015625 C 755.863281 497.980469 749.824219 497.949219 772.773438 497.949219 L 772.773438 517.152344 L 705.070312 517.355469 L 705.070312 556.875 L 771.964844 556.875 C 785.667969 556.875 809.191406 546.175781 810 516.273438 L 810 500.984375 C 810 475.46875 790.359375 460.382812 771.964844 460.382812 L 738.617188 460.382812 L 738.617188 442.058594 L 804.703125 442.058594 Z M 804.703125 442.089844 " fill-opacity="1" fill-rule="nonzero"/></g><path fill="#ffffff" d="M 288.257812 354.171875 L 283.769531 339.796875 C 276.816406 341.953125 270.878906 344.386719 265.78125 346.78125 L 270.472656 361.832031 C 276.414062 358.761719 282.351562 356.128906 288.257812 354.171875 Z M 288.257812 354.171875 " fill-opacity="1" fill-rule="nonzero"/></svg>